<svg xmlns="http://www.w3.org/2000/svg" viewBox="0 0 285.48 372.9"><defs><style>.a,.c{fill:none;}.a,.b,.c{stroke:#FC4A1A;stroke-miterlimit:10;}.a,.b{stroke-width:5px;}.b{fill:none;}.c{stroke-width:2px;}</style></defs><title>face</title><path class="a" d="M793.9,274.38c-8.15-.89-15.6.47-20.41,3.29a42.82,42.82,0,0,0-.94-8.19c5-2,10.52-6.41,15-12.62,7.92-11.05,9.5-23.48,3.53-27.75s-17.22,1.22-25.14,12.28a42.28,42.28,0,0,0-5.31,9.91,12.5,12.5,0,0,0-5.48-1.29l-.61,0c-7.67-68.73-32.44-117.47-103-117.47-91.71,0-115,82.36-115,184s23.34,184,115,184,106-82.36,106-184q0-4.89,0-9.71c5.84-1.19,10.82-6.64,13.6-14.28,4,4.1,11.27,7.33,19.87,8.27,13.52,1.48,25.12-3.23,25.92-10.53S807.41,275.86,793.9,274.38Z" transform="translate(-533.98 -130.06)"/><path class="b" d="M757.92,315.67s-127.23,62.57-221.44.84c-.08-75.06,6.92-75.06,6.92-75.06s92.1,64,209.1-5.19" transform="translate(-533.98 -130.06)"/><path class="c" d="M574.07,374.34S578.5,396,582.5,399s0-22.11,0-22.11Z" transform="translate(-533.98 -130.06)"/><circle class="c" cx="170.3" cy="166.66" r="23.05"/><path class="c" d="M581.07,376.34S585.5,398,589.5,401s0-22.11,0-22.11Z" transform="translate(-533.98 -130.06)"/><path class="c" d="M587.07,377.34S591.5,399,595.5,402s0-22.11,0-22.11Z" transform="translate(-533.98 -130.06)"/><path class="c" d="M594.07,379.34S598.5,401,602.5,404s0-22.11,0-22.11Z" transform="translate(-533.98 -130.06)"/><path class="c" d="M600.07,380.34S604.5,402,608.5,405s0-22.11,0-22.11Z" transform="translate(-533.98 -130.06)"/><path class="c" d="M606.07,382.34S610.5,404,614.5,407s0-22.11,0-22.11Z" transform="translate(-533.98 -130.06)"/><path class="c" d="M612.07,383.34S616.5,405,620.5,408s0-22.11,0-22.11Z" transform="translate(-533.98 -130.06)"/><path class="c" d="M619.07,385.34S623.5,407,627.5,410s0-22.11,0-22.11Z" transform="translate(-533.98 -130.06)"/><path class="c" d="M625.07,386.34S629.5,408,633.5,411s0-22.11,0-22.11Z" transform="translate(-533.98 -130.06)"/><path class="c" d="M632.07,387.34S636.5,409,640.5,412s0-22.11,0-22.11Z" transform="translate(-533.98 -130.06)"/><path class="c" d="M638.07,388.34S642.5,410,646.5,413s0-22.11,0-22.11Z" transform="translate(-533.98 -130.06)"/><path class="c" d="M644.07,389.34S648.5,411,652.5,414s0-22.11,0-22.11Z" transform="translate(-533.98 -130.06)"/><path class="c" d="M732.28,370.34S727.85,394,723.85,397s0-22.11,0-22.11Z" transform="translate(-533.98 -130.06)"/><path class="c" d="M569.07,374.34S573.5,396,577.5,399s0-22.11,0-22.11Z" transform="translate(-533.98 -130.06)"/><path class="c" d="M564.07,370.34S568.5,392,572.5,395s0-22.11,0-22.11Z" transform="translate(-533.98 -130.06)"/><path class="c" d="M560.07,372.34S562.5,391,566.5,394s0-22.11,0-22.11Z" transform="translate(-533.98 -130.06)"/><path class="c" d="M725.28,374.34S720.85,398,716.85,401s0-22.11,0-22.11Z" transform="translate(-533.98 -130.06)"/><path class="c" d="M719.28,379.34S714.85,401,710.85,404s0-22.11,0-22.11Z" transform="translate(-533.98 -130.06)"/><path class="c" d="M712.28,381.34S707.85,406,703.85,409s0-22.11,0-22.11Z" transform="translate(-533.98 -130.06)"/><path class="c" d="M706.28,386.34S701.85,408,697.85,411s0-22.11,0-22.11Z" transform="translate(-533.98 -130.06)"/><path class="c" d="M700.28,387.34S695.85,409,691.85,412s0-22.11,0-22.11Z" transform="translate(-533.98 -130.06)"/><path class="c" d="M694.28,388.34S689.85,410,685.85,413s0-22.11,0-22.11Z" transform="translate(-533.98 -130.06)"/><path class="c" d="M687.28,390.34S682.85,412,678.85,415s0-22.11,0-22.11Z" transform="translate(-533.98 -130.06)"/><path class="c" d="M681.28,390.34S676.85,412,672.85,415s0-22.11,0-22.11Z" transform="translate(-533.98 -130.06)"/><path class="c" d="M674.28,390.34S669.85,412,665.85,415s0-22.11,0-22.11Z" transform="translate(-533.98 -130.06)"/><path class="c" d="M668.28,390.34S663.85,412,659.85,415s0-22.11,0-22.11Z" transform="translate(-533.98 -130.06)"/><path class="c" d="M662.28,389.34S657.85,411,653.85,414s0-22.11,0-22.11Z" transform="translate(-533.98 -130.06)"/><path class="c" d="M673.4,463.19s-4.89-26.56-9-29.47.47,29.1.47,29.1Z" transform="translate(-533.98 -130.06)"/><path class="c" d="M667.4,465.19s-4.89-26.56-9-29.47.47,29.1.47,29.1Z" transform="translate(-533.98 -130.06)"/><path class="c" d="M660.4,465.19s-4.89-25.56-9-28.47.47,29.1.47,29.1Z" transform="translate(-533.98 -130.06)"/><path class="c" d="M693.4,453.19s-4.89-19.56-9-22.47.47,29.1.47,29.1Z" transform="translate(-533.98 -130.06)"/><path class="c" d="M687.4,457.19s-4.89-21.56-9-24.47.47,29.1.47,29.1Z" transform="translate(-533.98 -130.06)"/><path class="c" d="M680.4,462.19s-4.89-25.56-9-28.47.47,29.1.47,29.1Z" transform="translate(-533.98 -130.06)"/><path class="c" d="M608.76,454.19s4.89-19.56,9-22.47-.47,29.1-.47,29.1Z" transform="translate(-533.98 -130.06)"/><path class="c" d="M614.76,458.19s4.89-21.56,9-24.47-.47,29.1-.47,29.1Z" transform="translate(-533.98 -130.06)"/><path class="c" d="M621.76,463.19s4.89-25.56,9-28.47-.47,29.1-.47,29.1Z" transform="translate(-533.98 -130.06)"/><path class="c" d="M628.76,462.19s4.89-25.56,9-28.47-.47,29.1-.47,29.1Z" transform="translate(-533.98 -130.06)"/><path class="c" d="M634.76,464.19s4.89-25.56,9-28.47-.47,29.1-.47,29.1Z" transform="translate(-533.98 -130.06)"/><path class="c" d="M641.76,465.19s4.89-25.56,9-28.47-.47,29.1-.47,29.1Z" transform="translate(-533.98 -130.06)"/><circle class="c" cx="51.25" cy="167.66" r="23.05"/><circle class="c" cx="51.25" cy="167.66" r="14.34"/><circle class="c" cx="170.3" cy="166.66" r="14.34"/><path class="b" d="M569.25,372.5S683,412,723.88,372.5c0,0,23.63-17.5,10.06,21.5-6.77,19.47-37.44,70.5-65.94,70.5H639S590.5,470,562.5,393C562.5,393,552.5,365.34,569.25,372.5Z" transform="translate(-533.98 -130.06)"/><path class="c" d="M570.89,218.67s23.59,12.19,71.39,17.59,72.79-21.93,72.79-21.93" transform="translate(-533.98 -130.06)"/><path class="c" d="M589.77,204.5s17.56,9.07,53.12,13.09,54.17-16.32,54.17-16.32" transform="translate(-533.98 -130.06)"/><path class="c" d="M603.68,188.52s14.2,7.33,43,10.59,43.8-13.19,43.8-13.19" transform="translate(-533.98 -130.06)"/><path class="c" d="M634.18,345.22s.34-30,7.58-31.29,7.72,33.53,10.31,32.29C652,347.46,634.18,345.22,634.18,345.22Z" transform="translate(-533.98 -130.06)"/></svg>
